# Blender v2.83.5 OBJ File: 'Default.blend'
# www.blender.org
mtllib Default.mtl
o Cylinder
v 0.886939 0.961359 -0.886081
v 0.886939 0.961359 0.886081
v 1.809798 0.022785 -0.886081
v 1.809798 0.022785 0.886081
v 1.458399 -1.245722 -0.886081
v 1.458399 -1.245722 0.886081
v 0.184140 -1.575654 -0.886081
v 0.184140 -1.575654 0.886081
v -0.738719 -0.637080 -0.886081
v -0.738719 -0.637080 0.886081
v -0.387320 0.631426 -0.886081
v -0.387320 0.631426 0.886081
v 0.816164 0.705870 0.886081
v 0.816163 0.705870 -0.886081
v -0.482072 -0.570629 0.886081
v -0.482072 -0.570629 -0.886081
v -0.201448 0.442389 0.886081
v -0.201448 0.442389 -0.886081
v 0.254915 -1.320165 0.886081
v 0.254915 -1.320165 -0.886081
v 1.553150 -0.043667 0.886081
v 1.553150 -0.043667 -0.886081
v 1.272526 -1.056684 0.886081
v 1.272526 -1.056684 -0.886081
v 0.541861 1.723198 -0.487116
v 0.541861 -0.337096 -0.487116
v 0.541861 1.723198 0.487116
v 0.541861 -0.337096 0.487116
v -1.518433 1.723198 -0.487116
v -1.518433 -0.337096 -0.487116
v -1.518433 1.723198 0.487116
v -1.518433 -0.337096 0.487116
vt 1.000000 1.000000
vt 0.833333 0.500000
vt 1.000000 0.500000
vt 0.833333 1.000000
vt 0.666667 0.500000
vt 0.666667 1.000000
vt 0.500000 0.500000
vt 0.500000 1.000000
vt 0.333333 0.500000
vt 0.250000 0.058338
vt 0.250000 0.010000
vt 0.457846 0.130000
vt 0.333333 1.000000
vt 0.166667 0.500000
vt 0.166667 1.000000
vt -0.000000 0.500000
vt 0.750000 0.490000
vt 0.957846 0.370000
vt 0.750000 0.441662
vt 0.500000 0.874497
vt 0.666667 0.625503
vt 0.500000 0.625503
vt 0.833333 0.874497
vt 0.833333 0.625503
vt 1.000000 0.625503
vt 0.250000 0.441662
vt 0.250000 0.490000
vt 0.042154 0.370000
vt 0.750000 0.058338
vt 0.750000 0.010000
vt 0.542154 0.130000
vt -0.000000 0.874497
vt 0.166667 0.625503
vt -0.000000 0.625503
vt 0.333333 0.874497
vt 0.333333 0.625503
vt 0.457846 0.370000
vt 0.415984 0.345831
vt 0.415984 0.154169
vt 0.084016 0.154169
vt 0.042154 0.130000
vt -0.000000 1.000000
vt 0.957846 0.130000
vt 0.915984 0.345831
vt 0.915984 0.154169
vt 0.584016 0.345831
vt 0.542154 0.370000
vt 0.666667 0.874497
vt 1.000000 0.874497
vt 0.084016 0.345831
vt 0.584016 0.154169
vt 0.166667 0.874497
vt 0.875000 0.500000
vt 0.625000 0.750000
vt 0.625000 0.500000
vt 0.375000 1.000000
vt 0.375000 0.750000
vt 0.625000 0.000000
vt 0.375000 0.250000
vt 0.375000 0.000000
vt 0.375000 0.500000
vt 0.125000 0.750000
vt 0.125000 0.500000
vt 0.625000 0.250000
vt 0.875000 0.750000
vt 0.625000 1.000000
vn 0.7131 0.7011 -0.0000
vn 0.9637 -0.2670 -0.0000
vn 0.2507 -0.9681 0.0000
vn -0.7131 -0.7011 0.0000
vn -0.0000 0.0000 1.0000
vn -0.9637 0.2670 0.0000
vn -0.2507 0.9681 0.0000
vn -0.0000 -0.0000 -1.0000
vn 0.0000 1.0000 0.0000
vn -1.0000 0.0000 0.0000
vn -0.0000 -1.0000 -0.0000
vn 1.0000 0.0000 0.0000
usemtl Material.001
s off
f 2/1/1 3/2/1 1/3/1
f 4/4/2 5/5/2 3/2/2
f 6/6/3 7/7/3 5/5/3
f 8/8/4 9/9/4 7/7/4
f 19/10/5 8/11/5 6/12/5
f 10/13/6 11/14/6 9/9/6
f 12/15/7 1/16/7 11/14/7
f 1/17/8 3/18/8 14/19/8
f 19/20/7 24/21/7 20/22/7
f 24/21/6 21/23/6 22/24/6
f 21/23/4 14/25/4 22/24/4
f 13/26/5 2/27/5 12/28/5
f 20/29/8 7/30/8 9/31/8
f 13/32/3 18/33/3 14/34/3
f 18/33/2 15/35/2 16/36/2
f 16/36/1 19/20/1 20/22/1
f 2/1/1 4/4/1 3/2/1
f 4/4/2 6/6/2 5/5/2
f 6/6/3 8/8/3 7/7/3
f 8/8/4 10/13/4 9/9/4
f 6/12/5 4/37/5 21/38/5
f 6/12/5 21/38/5 23/39/5
f 15/40/5 10/41/5 8/11/5
f 6/12/5 23/39/5 19/10/5
f 19/10/5 15/40/5 8/11/5
f 10/13/6 12/15/6 11/14/6
f 12/15/7 2/42/7 1/16/7
f 3/18/8 5/43/8 22/44/8
f 5/43/8 24/45/8 22/44/8
f 18/46/8 11/47/8 14/19/8
f 11/47/8 1/17/8 14/19/8
f 3/18/8 22/44/8 14/19/8
f 19/20/7 23/48/7 24/21/7
f 24/21/6 23/48/6 21/23/6
f 21/23/4 13/49/4 14/25/4
f 12/28/5 10/41/5 17/50/5
f 10/41/5 15/40/5 17/50/5
f 21/38/5 4/37/5 2/27/5
f 12/28/5 17/50/5 13/26/5
f 13/26/5 21/38/5 2/27/5
f 9/31/8 11/47/8 18/46/8
f 9/31/8 18/46/8 16/51/8
f 24/45/8 5/43/8 7/30/8
f 9/31/8 16/51/8 20/29/8
f 20/29/8 24/45/8 7/30/8
f 13/32/3 17/52/3 18/33/3
f 18/33/2 17/52/2 15/35/2
f 16/36/1 15/35/1 19/20/1
usemtl Material
f 29/53/9 27/54/9 25/55/9
f 27/54/5 32/56/5 28/57/5
f 31/58/10 30/59/10 32/60/10
f 26/61/11 32/62/11 30/63/11
f 26/61/12 27/54/12 28/57/12
f 29/64/8 26/61/8 30/59/8
f 29/53/9 31/65/9 27/54/9
f 27/54/5 31/66/5 32/56/5
f 31/58/10 29/64/10 30/59/10
f 26/61/11 28/57/11 32/62/11
f 26/61/12 25/55/12 27/54/12
f 29/64/8 25/55/8 26/61/8
